<?xml version="1.0" encoding="UTF-8" standalone="no"?>
<!-- Created with Inkscape (http://www.inkscape.org/) -->
<svg id="svg8087" xmlns:rdf="http://www.w3.org/1999/02/22-rdf-syntax-ns#" xmlns="http://www.w3.org/2000/svg" height="152.25" width="594.47" version="1.1" xmlns:cc="http://creativecommons.org/ns#" xmlns:xlink="http://www.w3.org/1999/xlink" xmlns:dc="http://purl.org/dc/elements/1.1/">
 <defs id="defs8089">
  <linearGradient id="linearGradient8142" y2="667.36" gradientUnits="userSpaceOnUse" x2="376.77" gradientTransform="matrix(2.2473713,0,0,2.2473713,-740.33426,-1110.4383)" y1="733.51" x1="376.77">
   <stop id="stop8659" style="stop-color:#0066ff;" offset="0"/>
   <stop id="stop8661" style="stop-color:#0082ff;" offset="1"/>
  </linearGradient>
 </defs>
 <metadata id="metadata8092">
  <rdf:RDF>
   <cc:Work rdf:about="">
    <dc:format>image/svg+xml</dc:format>
    <dc:type rdf:resource="http://purl.org/dc/dcmitype/StillImage"/>
    <dc:title/>
   </cc:Work>
  </rdf:RDF>
 </metadata>
 <g id="layer1" transform="translate(-25.623142,-387.16328)">
  <g id="g8162">
   <g id="text9922" style="font-size:137.20568848px;font-family:URW Gothic L;writing-mode:lr-tb;fill:#1a1a1a;letter-spacing:0px;text-anchor:start;line-height:125%;word-spacing:0px;font-stretch:normal;font-variant:normal;font-weight:600;font-style:normal;text-align:start;">
    <path id="path8147" style="fill:#1a1a1a;" d="m194.17,513.99,18.248,0,0-76.012-18.248,0,0,76.012m0-84.244,18.248,0,0-17.151-18.248,0,0,17.151"/>
    <path id="path8149" style="fill:#1a1a1a;" d="m227.13,513.99,18.248,0,0-35.811c0-10.153,0.68603-14.544,3.0185-18.248,2.8813-4.5278,7.6835-6.9975,13.446-6.9975,4.665,0,8.5068,1.6465,10.976,4.8022,2.4697,3.2929,3.5674,8.9184,3.5674,19.072v37.183h18.248v-40.75c0-13.583-1.3721-20.169-5.4882-26.069-4.9394-7.1347-13.172-10.976-23.737-10.976-8.644,0-14.681,2.6069-21.404,9.0556v-7.2719h-16.876v76.012"/>
    <path id="path8151" style="fill:#1a1a1a;" d="m311.32,513.99,18.797,0,0-41.573,31.283,0,0-17.974-31.283,0,0-23.874,32.792,0,0-17.974-51.589,0,0,101.4"/>
    <path id="path8153" style="fill:#1a1a1a;" d="m425.54,410.81c-30.185,0-53.51,22.913-53.51,52.55,0,29.225,23.599,52.413,53.373,52.413,29.499,0,52.275-22.913,52.275-52.55,0-28.95-23.188-52.413-52.138-52.413m-0.27441,18.111c18.797,0,33.478,15.093,33.478,34.576s-14.269,34.164-33.478,34.164-34.301-15.093-34.301-34.301c0-19.62,14.818-34.439,34.301-34.439"/>
    <path id="path8155" style="fill:#1a1a1a;" d="m492.48,513.99,18.797,0,0-38.829,26.618,38.829,23.188,0-27.441-37.457c7.8207-1.9209,11.662-3.7046,16.053-7.4091,6.8603-5.8998,10.428-13.995,10.428-24.011,0-10.29-3.7046-19.072-10.702-24.971-6.5859-5.6254-13.858-7.5463-27.716-7.5463h-29.225v101.4m18.797-52.961,0-30.46,8.3695,0c8.7812,0,13.583,0.96044,16.602,3.5674,3.2929,2.6069,4.9394,6.5859,4.9394,11.525,0,10.702-6.1743,15.367-20.718,15.367h-9.1928"/>
    <path id="path8157" style="fill:#1a1a1a;" d="m582.5,513.99,18.797,0,0-83.421,18.797,0,0-17.974-56.392,0,0,17.974,18.797,0,0,83.421"/>
   </g>
   <path id="path9927" style="fill-rule:nonzero;fill:url(#linearGradient8142);" d="m177.88,463.29c0,42.043-34.083,76.125-76.125,76.125-42.043,0-76.127-34.082-76.127-76.125s34.083-76.125,76.127-76.125c42.042,0,76.125,34.082,76.125,76.125"/>
   <g id="text9929" style="font-size:143.29476929px;font-family:URW Gothic L;writing-mode:lr-tb;fill:#ffffff;letter-spacing:0px;text-anchor:start;line-height:125%;word-spacing:0px;font-stretch:normal;font-variant:normal;font-weight:600;font-style:normal;text-align:start;">
    <path id="path8160" style="fill:#ffffff;" d="m76.257,516.24,19.631,0,0-43.418,32.671,0,0-18.772-32.671,0,0-24.933,34.247,0,0-18.772-53.879,0,0,105.89"/>
   </g>
  </g>
 </g>
</svg>
