<svg width="222.42mm" height="64.557mm" version="1.1" viewBox="0 0 222.42 64.557" xmlns="http://www.w3.org/2000/svg"><text x="-274.28079" y="54.205719" fill="#ffffff" font-family="'URW Gothic L'" font-size="3.175px" font-weight="600" letter-spacing="0px" stroke-width=".26458" word-spacing="0px" style="line-height:0%" xml:space="preserve"><tspan x="-274.28079" y="54.205719" fill="#ffffff" font-family="'URW Gothic L'" font-size="53.862px" font-weight="600" stroke-width=".26458" style="line-height:125%">F</tspan></text><g transform="matrix(1.1762 0 0 1.1762 -7.2277 -7.2685)"><g transform="translate(237.47 -5.6339)" fill="#fff" font-family="'URW Gothic L'" font-weight="600" letter-spacing="0px" word-spacing="0px"><g stroke-width=".21013" aria-label="inFORT"><path d="m-169.37 46.329h5.4474v-22.691h-5.4474zm0-25.148h5.4474v-5.1198h-5.4474z"/><path d="m-159.53 46.329h5.4474v-10.69c0-3.0309 0.20479-4.3415 0.90108-5.4474 0.86011-1.3516 2.2936-2.0889 4.0139-2.0889 1.3926 0 2.5394 0.4915 3.2766 1.4335 0.73724 0.98299 1.0649 2.6623 1.0649 5.6932v11.1h5.4474v-12.165c0-4.0548-0.40958-6.0208-1.6383-7.782-1.4745-2.1298-3.932-3.2766-7.0857-3.2766-2.5804 0-4.3825 0.7782-6.3894 2.7032v-2.1708h-5.0378z"/><path d="m-134.4 46.329h5.6112v-12.41h9.3384v-5.3655h-9.3384v-7.1267h9.789v-5.3655h-15.4z"/><path d="m-100.3 15.529c-9.0108 0-15.974 6.84-15.974 15.687 0 8.7241 7.0448 15.646 15.933 15.646 8.806 0 15.605-6.84 15.605-15.687 0-8.6421-6.9219-15.646-15.564-15.646zm-0.0819 5.4065c5.6112 0 9.9938 4.5054 9.9938 10.321s-4.2596 10.199-9.9938 10.199-10.24-4.5054-10.24-10.24c0-5.857 4.4235-10.28 10.24-10.28z"/><path d="m-80.32 46.329h5.6112v-11.591l7.9459 11.591h6.9219l-8.1916-11.182c2.3346-0.57341 3.4814-1.1059 4.7921-2.2117 2.0479-1.7612 3.1128-4.1777 3.1128-7.1676 0-3.0718-1.1059-5.6932-3.1947-7.4544-1.966-1.6793-4.1368-2.2527-8.2735-2.2527h-8.7241zm5.6112-15.81v-9.0927h2.4984c2.6213 0 4.0548 0.28671 4.9559 1.0649 0.98299 0.7782 1.4745 1.966 1.4745 3.4405 0 3.1947-1.8431 4.5873-6.1847 4.5873z"/><path d="m-53.449 46.329h5.6112v-24.902h5.6112v-5.3655h-16.834v5.3655h5.6112z"/></g><g stroke-width=".46692" style="font-feature-settings:normal;font-variant-caps:normal;font-variant-ligatures:normal;font-variant-numeric:normal" aria-label="CMS"><path d="m-158.74 58.913c-1.1206 1.1767-2.0918 1.6249-3.4179 1.6249-2.5401 0-4.6319-2.1292-4.6319-4.7066 0-1.1206 0.42957-2.3159 1.1393-3.1377 0.84046-0.98988 2.0358-1.5128 3.4366-1.5128 1.6062 0 2.6895 0.52296 3.6233 1.737h2.8576c-0.54163-1.1953-1.0272-1.849-1.9611-2.6148-1.27-1.0272-2.8949-1.5875-4.5759-1.5875-3.9035 0-7.0973 3.1938-7.0973 7.0973 0 3.9782 3.2311 7.1906 7.2654 7.1906 2.8202 0 5.2856-1.5689 6.3688-4.0903z" style="font-feature-settings:normal;font-variant-caps:normal;font-variant-ligatures:normal;font-variant-numeric:normal"/><path d="m-151.46 62.76h2.5587v-10.347l3.6047 10.347h2.0918l3.6047-10.347v10.347h2.5588v-13.802h-3.5113l-3.6794 10.459-3.7167-10.459h-3.5113z" style="font-feature-settings:normal;font-variant-caps:normal;font-variant-ligatures:normal;font-variant-numeric:normal"/><path d="m-133.01 58.82c0.0934 1.0833 0.33619 1.7743 0.8965 2.5027 0.82179 1.0646 2.1852 1.6809 3.642 1.6809 2.484 0 4.4078-1.9237 4.4078-4.4264 0-1.1393-0.42957-2.1292-1.2327-2.8763-0.54164-0.50428-0.98989-0.74708-2.3346-1.2514-1.3074-0.4856-1.3447-0.50428-1.5315-0.61634-0.50428-0.31751-0.76576-0.74708-0.76576-1.2514 0-0.82179 0.57899-1.4008 1.4194-1.4008 0.85914 0 1.3821 0.52296 1.4568 1.4568h2.6521c-0.056-1.0459-0.29883-1.7556-0.85914-2.4467-0.74708-0.93385-1.9424-1.4755-3.2311-1.4755-2.2226 0-4.0156 1.737-4.0156 3.9222 0 1.737 1.0272 3.063 2.8763 3.7541s1.9611 0.74708 2.3907 1.0646c0.41089 0.33619 0.63502 0.82179 0.63502 1.4008 0 0.98988-0.76576 1.6809-1.8677 1.6809-1.1393 0-1.7556-0.56031-1.8677-1.7183z" style="font-feature-settings:normal;font-variant-caps:normal;font-variant-ligatures:normal;font-variant-numeric:normal"/></g></g><path d="m45.563 26.541h14.543c0.60186 2.2595 0.9244 4.6331 0.9244 7.0818 0 2.4491-0.32256 4.8226-0.9244 7.0819h-14.543c0.57033-4.7636 0.54654-9.5992 0-14.164zm-19.808 17.705c1.1816 5.9401 3.6708 12.45 7.7598 16.819 0.02445 8.7e-5 0.04863 8.36e-4 0.07318 8.36e-4 0.02445 0 0.04872-8.36e-4 0.07318-8.36e-4 4.0956-4.3755 6.5804-10.89 7.7598-16.819zm19.269-21.246h13.875c-3.5329-8.4072-11.132-14.684-20.336-16.369 3.346 4.7715 5.4022 10.66 6.4616 16.369zm-3.0265 3.541h-16.818c-0.59078 4.6381-0.59145 9.5205 0 14.164h16.819c0.59079-4.6381 0.59146-9.5205-1.03e-4 -14.164zm-19.845 17.705h-13.875c3.5328 8.4072 11.132 14.684 20.336 16.369-3.3469-4.7732-5.4027-10.662-6.4616-16.369zm22.871 0c-1.0595 5.7105-3.1164 11.598-6.4616 16.369 9.2044-1.6853 16.804-7.9618 20.336-16.369zm-3.6027-21.246c-1.1816-5.9401-3.6709-12.45-7.7598-16.819-0.02446 0-0.04863-8.37e-4 -0.07318-8.37e-4 -0.02445 0-0.04863 8.37e-4 -0.07318 8.37e-4 -4.0956 4.3755-6.5804 10.89-7.7598 16.819zm-34.351 3.541c-0.60195 2.2595-0.92453 4.6331-0.92453 7.0818s0.32257 4.8226 0.92453 7.0818h14.543c-0.54654-4.5649-0.57034-9.4005 0-14.164zm15.083-3.541c1.0595-5.7101 3.1162-11.598 6.4616-16.369-9.2044 1.6853-16.804 7.9614-20.336 16.369z" fill="#f56a6a" stroke-width=".11065"/></g></svg>
