<svg width="70.128mm" height="17.925mm" version="1.1" viewBox="0 0 70.128 17.925" xmlns="http://www.w3.org/2000/svg">
 <defs>
  <linearGradient id="a" x1="376.77" x2="376.77" y1="733.51" y2="667.36" gradientUnits="userSpaceOnUse">
   <stop stop-color="#06f" offset="0"/>
   <stop stop-color="#0082ff" offset="1"/>
  </linearGradient>
 </defs>
 <g transform="translate(-53.813 -77.614)">
  <g transform="matrix(.26458 0 0 .26458 -139.02 -110.47)">
   <g transform="translate(388 44.499)">
    <g fill="#1a1a1a" aria-label="inFORT">
     <path d="m415.82 722.81v-33.823h8.1199v33.823zm0-37.486v-7.6315h8.1199v7.6315z"/>
     <path d="m430.47 722.81v-33.823h7.5094v3.2358q3.9073-3.7242 8.4862-4.0294 0.48841 0 1.0379 0 7.2041 0 10.562 4.8842 2.1368 3.1136 2.381 8.9746 0.0611 1.16 0.0611 2.6252v18.132h-8.1199v-16.545q0-6.3494-1.5874-8.4862-1.6484-2.1368-4.8842-2.1368-4.0294 0-5.9831 3.1137-1.2821 2.0758-1.3431 7.3262 0 0.36631 0 0.79367v15.935z"/>
     <path d="m467.96 722.81v-45.117h22.956v7.9978h-14.591v10.623h13.92v7.9978h-13.92v18.499z"/>
     <path d="m518.57 676.9q9.2799 0 15.935 6.3494 6.5936 6.2884 7.2041 15.324 0.0611 0.79368 0.0611 1.6484 0 9.6462-6.4105 16.362-6.3494 6.5936-15.812 7.021-0.54947 0-1.0379 0-9.5852 0-16.423-6.3494-6.6547-6.2273-7.2652-15.385-0.061-0.79368-0.061-1.5874 0-9.6462 6.5326-16.301t16.179-7.082q0.54947 0 1.0989 0zm-0.1221 8.0589q-7.082 0-11.539 5.1284l-1.4042 1.8926q-2.32 3.7242-2.32 8.3031 0 6.8378 4.9452 11.356 4.3347 3.9073 10.318 3.9073 7.021 0 11.356-5.1284 3.541-4.2126 3.541-10.074 0-7.082-4.9452-11.6-4.2126-3.7852-9.9515-3.7852z"/>
     <path d="m548.37 722.81v-45.117h13.004q7.3262 0 10.806 2.2589 0.79368 0.48842 1.5263 1.0989 4.7621 4.0294 4.7621 11.111 0 6.7157-4.64 10.684-2.5031 2.1368-6.7157 3.1747l-0.42736 0.12211 12.21 16.667h-10.318l-11.844-17.278v17.278zm8.3641-23.566h4.0905q7.5094 0 8.8525-4.2126 0.36631-1.16 0.36631-2.6252 0-3.4189-2.1979-5.1284-1.8316-1.5874-7.3873-1.5874h-3.7242z"/>
     <path d="m589.15 722.81v-37.12h-8.3641v-7.9978h25.092v7.9978h-8.3641v37.12z"/>
    </g>
    <path d="m408.57 700.25c0 18.708-15.166 33.873-33.873 33.873-18.708 0-33.874-15.165-33.874-33.873s15.166-33.873 33.874-33.873c18.707 0 33.873 15.165 33.873 33.873" fill="url(#a)"/>
    <g fill="#fff" aria-label="F">
     <path d="m363.35 723.81v-47.119h23.974v8.3527h-15.239v11.094h14.538v8.3527h-14.538v19.32z" fill="#fff"/>
    </g>
   </g>
   <g fill="#1a1a1a" stroke-width=".26434" style="font-variant-caps:normal;font-variant-east-asian:normal;font-variant-ligatures:normal;font-variant-numeric:normal" aria-label="®">
    <path d="m987.56 717.07v-4.3666h1.3851q0.86698 0 1.2265 0.23261 0.0529 0.0423 0.10573 0.0846 0.5075 0.46522 0.53922 1.1842 0 0.83527-0.62381 1.2053-0.21146 0.12688-0.45464 0.16917l1.1842 1.4908h-1.2793l-1.015-1.4168v1.4168zm1.0679-2.178h0.3912q0.67667-0.0846 0.72954-0.61324 0-0.57094-0.71897-0.59209h-0.40177zm0.45464-4.0177q1.6494 0 2.823 1.1207 1.1525 1.089 1.2476 2.7067 0.0106 0.13745 0.0106 0.26433 0 1.5331-1.089 2.6961-0.91985 0.98329-2.2415 1.237-0.37005 0.0634-0.74011 0.0634-1.6071 0-2.7807-1.089-1.1525-1.0679-1.2899-2.6115-0.0106-0.17974-0.0106-0.34891 0-1.5754 1.089-2.7384 1.0679-1.1524 2.6221-1.2899 0.17974-0.0106 0.35948-0.0106zm0 0.81412q-1.3322 0-2.2838 0.95157-0.941 0.94099-0.941 2.2732t0.95157 2.2732q0.941 0.93042 2.2732 0.93042 1.3216 0 2.2838-0.93042 0.95157-0.93043 0.95157-2.2309 0-1.3956-0.97272-2.3472-0.93042-0.91985-2.2626-0.91985z" fill="#1a1a1a" stroke-width=".26434"/>
   </g>
  </g>
 </g>
</svg>
